<?xml version="1.0" encoding="UTF-8"?>
<svg id="Layer_1" data-name="Layer 1" xmlns="http://www.w3.org/2000/svg" viewBox="0 0 646.33 670.51">
  <defs>
    <style>
      .cls-1 {
        isolation: isolate;
      }
    </style>
  </defs>
  <g class="cls-1">
    <g>
      <path d="m10.65,138.68V52.85c37.16-16.48,31.32,58.87,24.91,75.63-3.76,9.82-10.67,10.1-12.94,10.2h-11.97M15.91,0C5.53.05,2.96.63.81,1.98q-.14,1.79-.55,187.74C98.61,200.41,87.14,55.57,59.01,21.79,43.39,3.03,25.3.09,15.91,0"/>
      <path d="m139.07,81.97v-29.39h29.77c17,.04,35.39.57,42.87,4.25,8.77,4.32,7.29,14.52,3.15,18.4-5.87,5.52-22.65,6.69-46.02,6.74h-29.77m0-79.13h-46.46c1.93,69.06,1.93,118.03,0,187.13h46.46v-59.8h32.52c17.34,30.73,25.33,44.95,32.94,59.8h69.72q-5.75-7.78-46.22-63.94c36.57-18.27,46.4-23.17,48.46-55.32,1.9-29.68-13.04-51.94-41.01-61.07-18.98-6.2-40.2-6.43-50.39-6.55h-46.02v-.25"/>
      <path d="m509.3,2.59h-55.82v97.94c-.3,65.65-73.66,35.99-80.4,29.26-3.65-3.65-6.81-6.8-6.91-26.93V2.59h-67.85v104.38c.64,115.03,155.78,93.37,186.32,63.84,15.55-15.04,23.85-37.12,24.65-65.64V2.59"/>
      <path d="m643.19,2.84h-26.07c-2.6,37.7-4.85,70.26-8.78,121.92-3.34-37.51-6.23-69.9-11.32-121.92h-56.01c-5.53,69.4-9.66,120.12-15.24,187.13h47.29c.81-44.17,1.63-88.33,2.43-132.5,5.92,48.38,8.89,72.67,15.61,132.5h31.9c3.45-48.48,5.19-72.82,8.81-133.52.41,44.51.82,89.01,1.22,133.52h12.36c-.66-75.08-1.14-115.31-2.2-187.13"/>
      <path d="m80.02,465.2H0c.11,88.95.11,113.55,0,202.5h9.49v-69.46c1.66-.12,17.58-1.11,64.55,1.68v-54.67c-45.11,2.28-60.17,1.73-64.55,1.38v-29.28h70.52v-52.16"/>
      <path d="m290.82,465.2H95.28c2.11,74.76,2.11,127.75,0,202.5h195.54c.03-34.37.78-41.76,2.94-54.12-25.15,1.18-62.33,2.47-147.38,3.08v-29.01c14.65-.33,56.06-.87,124.06,1.38v-47.97c-65.89,2.18-106.01,1.81-124.06,1.4v-26.79h144.44v-50.48"/>
      <path d="m437.12,459.62c-127.54,1.51-124.44,79.69-103.71,100.75,14.96,15.19,46.64,22.44,99.72,22.81,10.63.07,42.97.3,46.92,13.02,1.96,6.31-.32,16.89-37.65,16.83-5.11,0-51.19-.77-95.07-24.28-8.48,21.94-15.71,35.29-29.75,54.94,63.1,29.26,137.08,32.25,177.55,20.09,57.98-17.43,40.44-84.88,40.21-85.55-9.94-29.55-44.35-35.79-92.95-36.06-63.08-.36-52.33-22.33-34.92-26.14,28.44-6.22,68.79-.83,95.95,12.8,9.7,4.87,14.44,9.47,16.71,11.68,5.37-17.68,9.54-35.72,15.31-53.28-36.99-25.01-81.09-27.64-98.33-27.61"/>
      <path d="m645.77,465.2h-99.43v58.58c22.12-.97,37.49-1.46,53.04-1.68v145.6h29.81v-145.6c9.66.23,14.62.73,16.59,1.68v-58.58"/>
      <path d="m25.32,256.03H.15v38.06c.82-.63,1.32-1.01,3.46-1.33v65.41c-2.13-.32-2.63-.71-3.46-1.35v38.06h25.17v-38.06c-6.55.84-9.26,1.19-11.66,1.35v-65.41c2.51.18,4.58.43,11.66,1.33v-38.06"/>
      <path d="m75.31,252.2c-56.13.99-44.65,66.57-33.9,76.61,7.41,6.92,19.79,7.99,32.06,8.12,29.03.31,35.4,19.39,6.82,20.42-5.74.21-25.57-.38-39.73-16.6-2.58,14.44-4.57,22.89-8.87,37.68,24.05,27.22,98.26,29.29,102.64-25.48,1.5-18.73-2.73-43.69-56.55-44.14-15.26-.13-19.51-4.4-20.38-7.96-2.7-11.03,10.6-11.37,15.61-11.5,15.66-.41,38.44,8.15,48.74,18.32,3.65-12.16,6.58-24.54,10.8-36.53-22.09-14.02-44.06-18.97-57.25-18.94"/>
      <path d="m188.43,256.03h-41.19c1.73,51.28,1.73,87.62,0,138.86h127.87c.03-23.92,1.06-30.11,3.77-40.54-26.69,1.04-53.74,1.61-90.45,1.91v-100.23"/>
      <path d="m359.64,337.7c10.81-28.05,15.74-40.85,20.36-52.59q17.35,46.02,19.73,52.59h-40.09m56.2-81.68h-71.86c-18.98,46.31-38.29,92.48-57.09,138.86h51.2l10.11-27.35h62.37c4.14,11.31,6.9,19.23,9.56,27.35h46.57c-14.49-40.86-27-76.14-50.86-138.86"/>
      <path d="m590.97,256.23h-28.98q1.26,66.99,2.17,107.3c-10.31-34.92-17.76-60.14-33.3-107.3h-58.5c1.81,50.54,1.81,88.12,0,138.66h41.81c-.93-34.81-1.86-69.61-2.79-104.42,11.99,33.85,21.47,60.58,35.54,104.42h44.05c-1.02-45.36-1.02-93.3,0-138.66"/>
      <path d="m621.21,356.82v-63.68c13.42-4.03,14.8,1.61,15.81,5.72,2.5,10.22,2.81,46.91-1.03,54.6-1.59,3.18-3.73,3.29-5.01,3.35h-9.77m5-102.89c-13.36.06-21.77,1.12-26.94,1.91,1.06,48.68,1.06,87.61,0,138.86q39.5.78,43.18-12.03c3.08-10.74,8.56-111.63-3.96-124.62-3.45-3.58-8.38-4.08-12.28-4.11"/>
    </g>
  </g>
</svg>