<?xml version="1.0" encoding="UTF-8"?>
<svg id="a" data-name="Layer 1" xmlns="http://www.w3.org/2000/svg" viewBox="0 0 1166.27 333.3">
  <defs>
    <style>
      .b {
        fill: #140e3c;
      }
    </style>
  </defs>
  <g>
    <path class="b" d="m329.3,161.63c-36.27-36.27-38.77-41.57-52.05-41.08,9.39-8.73,7.74-11.79,7.74-65.87,0-9.9-7.47-7.42-55.18-7.42-7.12,0-13.53,3.06-17.97,7.94.25-6.51-2.08-13.1-7.05-18.07C171.4,3.73,167.39-4.02,160.27,3.1c-36.32,36.32-41.51,38.52-40.84,52.16-9.12-10.07-14.37-7.99-65.6-8-9.32,0-7.6,5.65-7.6,55.54,0,7.04,3,13.37,7.79,17.79-6.59-.31-13.29,2.03-18.32,7.07-43.81,43.82-42.9,35.14-21.83,56.21,21.51,21.51,26.35,29.64,40.1,29.14-4.76,4.42-7.74,10.74-7.74,17.75,0,51.02-1.33,55.54,7.6,55.54,47.94,0,56.01,2.54,65.56-7.94-.56,14.47,6.85,17.62,41.21,51.98,7.07,7.07,14.22-3.73,22.25-11.76,21.31-21.31,29.64-26.29,28.95-40.27,8.72,9.62,14.93,7.99,48.97,7.99,29.06,0,24.23,4.88,24.23-41.21,0-13.22,1.7-23.36-7.79-32.13,12.94.6,16.1-4.84,40.15-28.89,8.76-8.76,18.88-15.5,11.95-22.44Zm-68.53,44.9c-13.38,0-24.23,10.85-24.23,24.23v6.92h-6.73c-13.85,0-24.97,11.57-24.28,25.52-9.62-10.61-25.62-10.45-35.19-.89l-4.76,4.76-4.89-4.89c-9.46-9.46-24.8-9.46-34.26,0-.97.97-.71,1.22-.71-.18,0-13.43-10.88-24.31-24.31-24.31h-6.73v-6.92c0-13.66-11.31-24.71-25.12-24.2,10.33-9.61,10.14-25.38.66-34.86l-4.89-4.89,4.76-4.76c9.49-9.49,9.49-24.89,0-34.38-.88-.88-1.07-.63.37-.63,13.38,0,24.23-10.85,24.23-24.23v-6.92h6.73c13.85,0,24.97-11.57,24.28-25.52,9.63,10.62,25.63,10.45,35.19.89l4.76-4.76,4.89,4.89c9.46,9.46,24.8,9.46,34.26,0,.97-.97.71-1.22.71.18,0,13.43,10.88,24.31,24.31,24.31h6.73v6.92c0,13.66,11.31,24.71,25.12,24.2-10.31,9.59-10.15,25.36-.66,34.86l4.89,4.89-4.76,4.76c-9.49,9.49-9.49,24.89,0,34.38.87.87,1.07.63-.38.63Z"/>
    <ellipse class="b" cx="165.09" cy="166.75" rx="71.45" ry="71.71"/>
  </g>
  <g>
    <path class="b" d="m441.68,143.96c0-94.03-.89-91.45,2.06-94.24,2.91-2.81,4.5-1.97,40.82-1.97,20.79,0,34.97,9.61,34.97,30.24s-14.54,29.79-34.95,29.79l1.33-2.05c18.33,0,18.36,5.77,34.52,35.64,5.08,9.2-4.65,12.93-10.36,8.98-2.97-2.08-2.73-2.55-19.02-32.49-6.25-11.51-13.21-9.64-34.07-9.64,0,36.58,2.55,43.52-7.64,43.52-.15-.24-7.67.74-7.67-7.78Zm15.28-47.16c25.61,0,34.82,1.17,42-4.67,7.56-6.16,7.89-21.14,0-27.6-7.21-5.89-16.54-4.67-42-4.67v36.95Z"/>
    <path class="b" d="m548.33,151.7c-5.01,0-7.64-2.97-7.64-7.74,0-94.82-.85-92.48,1.98-95.27,2.67-2.66,8.65-2.66,11.32,0,2.81,2.8,1.99,4.21,1.99,43.44h58.01v-37.67c0-10.46,15.14-10.59,15.14,0,0,95.23.82,92.27-1.91,95.2-2.61,2.78-8.59,2.74-11.24,0-2.71-2.77-1.99-3.17-1.99-44.82h-58.01c0,40.5,2.55,46.87-7.65,46.87Z"/>
    <path class="b" d="m682.14,143.81c0-58.36-1.13-49.52,3.37-36.66-38.98-53.81-37.96-51.3-37.74-54.68.37-6.1,9.36-8.83,14.97-.97,33.48,46.23,30.48,40.15,25.55,40.15,30.94-42.73,30.21-42.29,32.75-43.87,6.5-4.03,14.65,1.78,9.11,9.42-45.3,62.88-37,53.15-32.89,40.3,0,50.09,2.22,54.18-7.49,54.18.1.1-7.64.51-7.64-7.88Z"/>
    <path class="b" d="m793.77,151.7c-10.22,0-7.65-.25-7.65-91.25-31.39,0-37.74,2.14-37.74-6.43,0-4.19,2.62-6.28,6.61-6.28,82.05,0,79.86-.69,82.39,1.61,2.39,2.17,2.38,7.15,0,9.42-2.47,2.36-3.59,1.68-36.13,1.68,0,89.31,2.58,91.25-7.48,91.25Z"/>
    <path class="b" d="m862.55,151.7c-5.01,0-7.64-2.97-7.64-7.74,0-94.82-.85-92.48,1.98-95.27,2.67-2.66,8.65-2.66,11.32,0,2.81,2.8,1.99,4.21,1.99,43.44h58.01v-37.67c0-10.53,15.14-10.53,15.14,0,0,95.23.82,92.27-1.91,95.2-2.61,2.78-8.59,2.74-11.24,0-2.71-2.77-1.99-3.17-1.99-44.82h-58.01c0,40.5,2.55,46.87-7.65,46.87Z"/>
    <path class="b" d="m966.61,144.55c0-95.64-.82-93.4,1.91-96,2.57-2.45,7.6-2.21,9.92-.73,2.36,1.53.85-.43,41.64,75.27-6.37,0-10.36,10.82,33.79-71.4,3.9-7.41,14.55-6.67,14.55,2.19,0,95.69.73,93.21-1.69,95.93-2.29,2.55-7.82,2.55-10.21,0-2.53-2.73-1.77.03-1.77-80.6,4.53,0,8.4-9.49-30.85,62.64-3.31,6.12-9.54,5.4-12.62,0-39.58-72.3-35.78-62.79-30.85-62.79,0,81.5,2.05,82.63-6.76,82.63,0,.1-7.05.4-7.05-7.14Z"/>
    <path class="b" d="m1126.52,152c-11.06,0-35.28-4.2-38.69-13-2.21-5.51,2.85-12.04,8.74-8.03,17.74,11.36,54.35,12.85,54.35-7.89s-38.32-11.22-55.02-27.6c-11.69-11.5-10-38.84,16.37-46.87,23.25-7.05,47.53,4.07,49.71,10.6,1.92,5.75-3.07,11.27-9.32,7.24-13.1-8.67-36.92-10.8-45.6,1.16-3.81,5.24-4.27,14.17,1.1,19.13,4.94,4.56,13.53,5.62,28.79,8.77,44.97,9.41,36.19,56.49-10.42,56.49Z"/>
    <path class="b" d="m481.99,286.47c-41.46,0-56.73-41.16-45.1-74.68,12.05-34.72,51.09-36.07,70.79-24.47,28.64,16.95,28.75,63.91,9.63,84.83-16.72,18.36-36.91,12.68-35.32,14.32Zm0-13.14c38.16,0,38.33-51.54,24.08-68.93-13.57-16.49-56.68-18.37-56.68,29.21,0,22.66,10.2,39.72,32.6,39.72Z"/>
    <path class="b" d="m543.99,278.14c0-93.33-.93-90.79,2.14-93.8,3.03-3.02,3.11-2.12,58.38-2.12,4.2,0,6.32,1.98,6.32,5.99,0,8.38-2.71,6.28-51.55,6.28v32.85c43.86,0,44.49-.66,46.92,1.53,2.36,2.13,2.2,7.04,0,9.13-2.42,2.29-2.06,1.61-46.92,1.61,0,40.28,2.4,46.57-7.2,46.57,1.48,0-8.08,1.34-8.08-8.04Z"/>
    <path class="b" d="m689.05,286.18c-5.04,0-7.65-3-7.65-7.74,0-95.02-.85-92.48,1.99-95.27,2.67-2.66,8.65-2.66,11.32,0,2.81,2.8,1.99,4.21,1.99,43.44h58.01v-37.67c0-10.46,15.14-10.59,15.14,0,0,95.23.82,92.27-1.91,95.2-2.61,2.78-8.59,2.74-11.24,0-2.71-2.77-1.99-3.17-1.99-44.82h-58.01c0,40.47,2.53,46.87-7.64,46.87Z"/>
    <path class="b" d="m834.74,286.47c-41.37,0-56.77-41.05-45.1-74.68,12.27-35.29,51.68-35.72,70.79-24.47,28.68,16.97,28.72,63.93,9.63,84.83-17.07,18.73-37.12,12.46-35.32,14.32Zm0-13.14c38.48,0,38.2-51.71,24.08-68.93-13.57-16.49-56.68-18.37-56.68,29.21,0,22.72,10.25,39.72,32.6,39.72Z"/>
    <path class="b" d="m909.7,286.18c-5,0-7.64-2.96-7.64-7.74,0-94.07-.88-91.46,2.06-94.25,2.91-2.81,4.5-1.97,40.82-1.97,21.03,0,34.97,10.36,34.97,31.39,0,36.39-35.36,31.54-62.57,31.54,0,33.89,2.5,41.03-7.64,41.03Zm7.64-53.15c25.88,0,34.96,1.26,42.08-4.89,7.49-6.5,7.74-22.21,0-28.92-7.08-6.14-16.09-4.89-42.08-4.89v38.69Z"/>
    <path class="b" d="m999.02,276.99c0-92.62-.92-89.64,2.13-92.65,2.91-2.89,1.95-2.12,59.71-2.12,4.03,0,6.32,2.01,6.32,5.99,0,8.36-2.78,6.28-53.46,6.28v32.27c45.37,0,46.45-.69,48.69,1.61,2.15,2.25,2,7.13,0,9.12-2.2,2.19-2.26,1.53-48.69,1.53v33.88h47.15c8.59,0,8.59,12.26,0,12.26-56.93-.01-61.84,2.64-61.84-8.18Z"/>
  </g>
</svg>